{"title":"The Objective-720p MP4 AAC x264 BRRip 2008-CC","uid":7916938,"size":3038785045,"categoryP":"video","categoryS":"hd___movies","magnet":"?xt=urn:btih:175e57db6540a22d9ec398af01db80963118c4fb&amp;dn=The+Objective-720p+MP4+AAC+x264+BRRip+2008-CC&amp;tr=udp%3A%2F%2Ftracker.openbittorrent.com%3A80&amp;tr=udp%3A%2F%2Fopen.demonii.com%3A1337&amp;tr=udp%3A%2F%2Ftracker.coppersurfer.tk%3A6969&amp;tr=udp%3A%2F%2Fexodus.desync.com%3A6969","seeders":1,"leechers":1,"uploader":"Caveman44","files":-1,"time":1355391068,"description":" &lt;a href=&quot;http://www.imdb.com/title/tt0962711/&quot; rel=&quot;nofollow&quot; target=&quot;_NEW&quot;&gt;http://www.imdb.com/title/tt0962711/&lt;/a&gt;\n\nSource: The.Objective.2008.Blu-ray.720p.x264.DTS.MySilu Thanks!\n\nHardcoded English subs when needed.\n\nSubs: Arabic, Danish, Dutch, English, Finnish, Greek, Indonesian, Norwegian, Romanian, Servian, Spanish and Vietnamese.\n\nSample and Screens included.\n\nGeneral\nComplete name                            : The Objective-720p MP4 AAC x264 BRRip 2008-CC.mp4\nFormat                                   : MPEG-4\nFormat profile                           : Base Media\nCodec ID                                 : isom\nFile size                                : 2.80 GiB\nDuration                                 : 1h 30mn\nOverall bit rate mode                    : Variable\nOverall bit rate                         : 4 445 Kbps\nEncoded date                             : UTC 2012-12-02 16:28:42\n\nVideo\nID                                       : 1\nFormat                                   : AVC\nFormat/Info                              : Advanced Video Codec\nFormat profile                           : &lt;a class=&quot;__cf_email__&quot; href=&quot;/cdn-cgi/l/email-protection&quot; data-cfemail=&quot;b7ffded0dff7fb839986&quot;&gt;[email&amp;#160;protected]&lt;/a&gt;&lt;script cf-hash='f9e31' type=&quot;text/javascript&quot;&gt;\n/* &lt;![CDATA[ */!function(){try{var t=&quot;currentScript&quot;in document?document.currentScript:function(){for(var t=document.getElementsByTagName(&quot;script&quot;),e=t.length;e--;)if(t[e].getAttribute(&quot;cf-hash&quot;))return t[e]}();if(t&amp;&amp;t.previousSibling){var e,r,n,i,c=t.previousSibling,a=c.getAttribute(&quot;data-cfemail&quot;);if(a){for(e=&quot;&quot;,r=parseInt(a.substr(0,2),16),n=2;a.length-n;n+=2)i=parseInt(a.substr(n,2),16)^r,e+=String.fromCharCode(i);e=document.createTextNode(e),c.parentNode.replaceChild(e,c)}}}catch(u){}}();/* ]]&gt; */&lt;/script&gt;\nFormat settings, CABAC                   : Yes\nFormat settings, ReFrames                : 5 frames\nCodec ID                                 : avc1\nCodec ID/Info                            : Advanced Video Coding\nDuration                                 : 1h 30mn\nBit rate                                 : 4 222 Kbps\nMaximum bit rate                         : 36.2 Mbps\nWidth                                    : 1 280 pixels\nHeight                                   : 720 pixels\nDisplay aspect ratio                     : 16:9\nFrame rate mode                          : Variable\nFrame rate                               : 23.963 fps\nMinimum frame rate                       : 15.873 fps\nMaximum frame rate                       : 24.390 fps\nColor space                              : YUV\nChroma subsampling                       : 4:2:0\nBit depth                                : 8 bits\nScan type                                : Progressive\nBits/(Pixel*Frame)                       : 0.191\nStream size                              : 2.55 GiB (91%)\nWriting library                          : x264 core 112\n\nAudio\nID                                       : 2\nFormat                                   : AAC\nFormat/Info                              : Advanced Audio Codec\nFormat profile                           : LC\nCodec ID                                 : 40\nDuration                                 : 1h 30mn\nBit rate mode                            : Variable\nBit rate                                 : 384 Kbps\nMaximum bit rate                         : 631 Kbps\nChannel(s)                               : 6 channels\nChannel positions                        : Front: L C R, Side: L R, LFE\nSampling rate                            : 48.0 KHz\nCompression mode                         : Lossy\nDelay relative to video                  : 83ms\nStream size                              : 247 MiB (9%)\nLanguage                                 : English\n\nEnjoy...\n\nRequested by cmptrluvr's\n\nComing soon: Donnie Darko, Buffalo 66, Blade Trilogy and more...","torrent":{"xt":"urn:btih:175e57db6540a22d9ec398af01db80963118c4fb","amp;dn":"The+Objective-720p+MP4+AAC+x264+BRRip+2008-CC","amp;tr":["udp%3A%2F%2Ftracker.openbittorrent.com%3A80","udp%3A%2F%2Fopen.demonii.com%3A1337","udp%3A%2F%2Ftracker.coppersurfer.tk%3A6969","udp%3A%2F%2Fexodus.desync.com%3A6969"],"infoHash":"175e57db6540a22d9ec398af01db80963118c4fb","infoHashBuffer":{"type":"Buffer","data":[23,94,87,219,101,64,162,45,158,195,152,175,1,219,128,150,49,24,196,251]},"announce":[],"urlList":[]}}